<?xml version="1.0" standalone="no"?>
<!DOCTYPE svg PUBLIC "-//W3C//DTD SVG 20010904//EN"
 "http://www.w3.org/TR/2001/REC-SVG-20010904/DTD/svg10.dtd">
<svg version="1.0" xmlns="http://www.w3.org/2000/svg"
 width="512.000000pt" height="512.000000pt" viewBox="0 0 512.000000 512.000000"
 preserveAspectRatio="xMidYMid meet">
<metadata>
Created by potrace 1.14, written by Peter Selinger 2001-2017
</metadata>
<g transform="translate(0.000000,512.000000) scale(0.100000,-0.100000)"
fill="#000000" stroke="none">
<path d="M2487 5109 c-29 -8 -92 -51 -115 -79 -7 -8 -23 -35 -35 -60 -20 -43
-21 -61 -23 -379 -2 -183 -4 -334 -6 -336 -2 -1 -39 -6 -82 -10 -43 -4 -86 -8
-95 -10 -9 -1 -38 -6 -66 -9 -219 -29 -511 -109 -734 -202 -267 -112 -481
-253 -667 -438 -170 -170 -260 -302 -356 -519 -39 -90 -99 -283 -113 -362 -4
-22 -9 -51 -11 -65 -26 -152 -26 -503 0 -660 23 -139 25 -147 51 -245 201
-747 782 -1355 1535 -1605 109 -37 180 -57 225 -66 11 -2 31 -6 45 -9 63 -13
83 -17 204 -34 99 -14 181 -17 345 -16 119 2 227 5 240 9 13 3 49 8 80 12 31
3 63 8 71 9 8 2 51 11 95 20 503 104 1008 398 1325 774 25 29 55 65 68 80 56
63 205 300 260 413 111 230 175 432 212 678 15 100 18 169 15 345 -1 121 -5
229 -8 240 -4 18 -9 47 -23 135 -9 54 -66 242 -94 311 -216 523 -667 896
-1324 1094 -196 59 -446 108 -615 120 -41 3 -77 8 -80 11 -3 3 -6 155 -6 337
-1 313 -2 335 -21 377 -24 53 -72 102 -123 126 -40 19 -130 26 -174 13z"/>
</g>
</svg>
